<svg width="20" height="16" viewBox="0 0 20 16" fill="none" xmlns="http://www.w3.org/2000/svg">
<path fill-rule="evenodd" clip-rule="evenodd" d="M0 1.06667C0 0.477566 0.497461 0 1.11111 0H18.8889C19.5025 0 20 0.477566 20 1.06667C20 1.65578 19.5025 2.13335 18.8889 2.13335H1.11111C0.497461 2.13335 0 1.65578 0 1.06667Z" fill="#E7AB21"/>
<path fill-rule="evenodd" clip-rule="evenodd" d="M0 8C0 7.41089 0.497461 6.93333 1.11111 6.93333H9.88889C10.5025 6.93333 11 7.41089 11 8C11 8.58911 10.5025 9.06667 9.88889 9.06667H1.11111C0.497461 9.06667 0 8.58911 0 8Z" fill="#E7AB21"/>
<path fill-rule="evenodd" clip-rule="evenodd" d="M0 14.9333C0 14.3442 0.497461 13.8667 1.11111 13.8667H18.8889C19.5025 13.8667 20 14.3442 20 14.9333C20 15.5224 19.5025 16 18.8889 16H1.11111C0.497461 16 0 15.5224 0 14.9333Z" fill="#E7AB21"/>
</svg>
