<svg width="22" height="22" viewBox="0 0 22 22" fill="none" xmlns="http://www.w3.org/2000/svg">
<path fill-rule="evenodd" clip-rule="evenodd" d="M1.84467 1.84467C3.17914 0.510201 5.17603 0 7.75 0H13.75C16.324 0 18.3209 0.510201 19.6553 1.84467C20.9898 3.17914 21.5 5.17603 21.5 7.75V13.75C21.5 16.324 20.9898 18.3209 19.6553 19.6553C18.3209 20.9898 16.324 21.5 13.75 21.5H7.75C5.17603 21.5 3.17914 20.9898 1.84467 19.6553C0.510201 18.3209 0 16.324 0 13.75V7.75C0 5.17603 0.510201 3.17914 1.84467 1.84467ZM2.90533 2.90533C1.9898 3.82086 1.5 5.32397 1.5 7.75V13.75C1.5 16.176 1.9898 17.6791 2.90533 18.5947C3.82086 19.5102 5.32397 20 7.75 20H13.75C16.176 20 17.6791 19.5102 18.5947 18.5947C19.5102 17.6791 20 16.176 20 13.75V7.75C20 5.32397 19.5102 3.82086 18.5947 2.90533C17.6791 1.9898 16.176 1.5 13.75 1.5H7.75C5.32397 1.5 3.82086 1.9898 2.90533 2.90533Z" fill="#E7AB21"/>
<path d="M14.2661 12.0388L13.4793 10.5485L11.3878 15.855L11.3864 15.8585C11.2994 16.0758 11.1794 16.2936 11.0091 16.4687C10.8354 16.6471 10.5695 16.8175 10.225 16.8175C9.8805 16.8175 9.61456 16.6471 9.44092 16.4687C9.27061 16.2936 9.15056 16.0758 9.06364 15.8585L9.06264 15.856L7.92364 12.9785L7.92325 12.9776C7.84965 12.7943 7.68171 12.5871 7.43996 12.423C7.19803 12.2587 6.94517 12.1803 6.75105 12.18L6.75 12.18L0.7525 12.2C0.338289 12.2014 0.00138494 11.8667 4.25674e-06 11.4525C-0.00137643 11.0383 0.333289 10.7014 0.7475 10.7L6.75 10.68C7.30575 10.68 7.8474 10.8866 8.28254 11.182C8.71786 11.4776 9.10976 11.905 9.31636 12.4215L9.31736 12.424L10.2245 14.7157L12.2821 9.49542C12.4265 9.12801 12.7568 8.61997 13.3728 8.5873C13.9866 8.55475 14.3697 9.02237 14.5532 9.36986L15.5939 11.3412C15.6702 11.4863 15.8359 11.6622 16.0711 11.804C16.3064 11.946 16.5387 12.01 16.7 12.01H20.76C21.1742 12.01 21.51 12.3458 21.51 12.76C21.51 13.1742 21.1742 13.51 20.76 13.51H16.7C16.2013 13.51 15.7036 13.3341 15.2964 13.0885C14.8893 12.8429 14.4998 12.4834 14.2661 12.0388Z" fill="#E7AB21"/>
</svg>
