<svg width="45" height="13" viewBox="0 0 45 13" fill="none" xmlns="http://www.w3.org/2000/svg">
<path d="M0.104 1.076V12.5H8.184V10.388H2.616V1.076H0.104ZM11.6044 6.836C11.6044 4.836 12.4524 2.916 14.7084 2.916C16.9644 2.916 17.8124 4.836 17.8124 6.836C17.8124 8.74 16.9644 10.66 14.7084 10.66C12.4524 10.66 11.6044 8.74 11.6044 6.836ZM9.09238 6.836C9.09238 10.164 11.1884 12.756 14.7084 12.756C18.2284 12.756 20.3244 10.164 20.3244 6.836C20.3244 3.444 18.2284 0.804 14.7084 0.804C11.1884 0.804 9.09238 3.444 9.09238 6.836ZM30.2975 11.204L30.5535 12.5H32.1535V6.324H27.3535V8.196H29.8815C29.7375 9.796 28.8255 10.66 27.1615 10.66C24.9055 10.66 24.0575 8.74 24.0575 6.836C24.0575 4.836 24.9055 2.916 27.1615 2.916C28.3775 2.916 29.2735 3.556 29.5775 4.836H31.9775C31.7215 2.228 29.5135 0.804 27.1615 0.804C23.6415 0.804 21.5455 3.444 21.5455 6.836C21.5455 10.164 23.6415 12.756 27.1615 12.756C28.2655 12.756 29.4015 12.356 30.2975 11.204ZM36.1981 6.836C36.1981 4.836 37.0461 2.916 39.3021 2.916C41.5581 2.916 42.4061 4.836 42.4061 6.836C42.4061 8.74 41.5581 10.66 39.3021 10.66C37.0461 10.66 36.1981 8.74 36.1981 6.836ZM33.6861 6.836C33.6861 10.164 35.7821 12.756 39.3021 12.756C42.8221 12.756 44.9181 10.164 44.9181 6.836C44.9181 3.444 42.8221 0.804 39.3021 0.804C35.7821 0.804 33.6861 3.444 33.6861 6.836Z" fill="#E7AB21"/>
</svg>
