<svg width="8" height="8" viewBox="0 0 8 8" fill="none" xmlns="http://www.w3.org/2000/svg">
<path d="M3.56883 0.442216C3.75174 0.0955322 4.24825 0.0955314 4.43117 0.442215L5.26356 2.01989C5.3341 2.15359 5.46267 2.247 5.61161 2.27277L7.3693 2.57689C7.75554 2.64372 7.90897 3.11593 7.63577 3.39702L6.39254 4.6762C6.28718 4.7846 6.23808 4.93574 6.25959 5.08536L6.51351 6.851C6.5693 7.23899 6.16762 7.53083 5.81586 7.35787L4.21511 6.57077C4.07946 6.50407 3.92054 6.50407 3.78489 6.57077L2.18414 7.35787C1.83238 7.53083 1.43069 7.23899 1.48649 6.851L1.74041 5.08536C1.76192 4.93574 1.71282 4.7846 1.60746 4.6762L0.364226 3.39702C0.0910333 3.11593 0.244463 2.64372 0.630702 2.57689L2.38839 2.27277C2.53733 2.247 2.6659 2.15359 2.73644 2.01989L3.56883 0.442216Z" fill="#E3E721"/>
</svg>
